# xmcd
#
# Track frame offsets:
#	150
#	16042
#	34490
#	49546
#	67320
#	79132
#	92804
#	111211
#	127701
#	142008
#	156265
#	172507
#	189245
#	203997
#	220413
#
# Disc length: 3151 seconds
#
# Revision: 1
# Processed by: cddbd v1.5.2PL0 Copyright (c) Steve Scherf et al.
# Submitted via: audiograbber 1.83.01
#
DISCID=cb0c4d0f
DTITLE=Supergeil - Oktoberfest Hits [2]
DYEAR=2016
DGENRE=Schlager
TTITLE0=Howard Carpendale - Hello Again
TTITLE1=Linda Hesse - Knutschen... ich kann nichts dafür
TTITLE2=De Randfichten - Lebt denn dr alte Holzmichl noch
TTITLE3=7 Zwerge - Steh' auf, wenn du auf Zwerge stehst
TTITLE4=Die Minstrels - Grüezi Wohl, Frau Stirnimaa
TTITLE5=Alpentrio Tirol - Stubai - Stubaital
TTITLE6=Rainhard Fendrich - Es lebe der Sport
TTITLE7=Anna-Maria Zimmermann - 100.000 leuchtende Sterne
TTITLE8=Olaf Henning - Cowboy und Indianer
TTITLE9=Die wahren Frisösen - Die Antwort
TTITLE10=Spider Murphy Gang - Skandal im Sperrbezirk
TTITLE11=Matthias Reim - Das ist die Hölle
TTITLE12=Norman Langen - Einer von Millionen
TTITLE13=Höhner - Viva Colonia
TTITLE14=Tim Toupet - Vater Abraham
EXTD=
EXTT0=
EXTT1=
EXTT2=
EXTT3=
EXTT4=
EXTT5=
EXTT6=
EXTT7=
EXTT8=
EXTT9=
EXTT10=
EXTT11=
EXTT12=
EXTT13=
EXTT14=
PLAYORDER=
